<svg width="768" height="128" viewBox="0 0 768 128" fill="none" xmlns="http://www.w3.org/2000/svg">
<path d="M384 0C452.013 0 507.625 53.0268 511.754 119.999C512.026 124.408 508.418 128 504 128H264C259.582 128 255.974 124.408 256.246 119.999C260.375 53.0268 315.987 0 384 0Z" fill="url(#paint0_linear_701_44759)"/>
<circle cx="429" cy="63" r="15" fill="#FDE2BC"/>
<path d="M372 118C380.284 118 387 111.284 387 103C387 94.7157 380.284 88 372 88C363.716 88 357 94.7157 357 103C357 111.284 363.716 118 372 118Z" fill="#FDE2BC"/>
<path d="M390.1 93.9998C389.8 86.1998 397.3 79.9998 404.9 81.8998C406.7 82.2998 408.6 81.6998 409.7 80.1998C412.9 76.0998 417.9 73.4998 423.5 73.4998C426.5 73.5998 430 74.6998 432.2 71.8998C435.8 67.5998 441.2 64.7998 447.3 64.7998C455.3 64.7998 462.2 69.5998 465.3 76.4998C466.4 79.0998 469 80.6998 471.8 80.6998C479 80.5998 484.7 86.9998 483.9 94.0998L390.1 93.9998Z" fill="white"/>
<path d="M378.341 60.5C378.541 54.9 373.141 50.5 367.741 51.8C366.441 52.1 365.141 51.6 364.241 50.6C361.941 47.7 358.341 45.8 354.341 45.8C352.141 45.9 349.641 46.7 348.141 44.6C345.541 41.5 341.641 39.5 337.341 39.5C331.641 39.5 326.641 42.9 324.441 47.9C323.641 49.7 321.841 50.9 319.741 50.9C314.641 50.8 310.541 55.4 311.041 60.5H378.341Z" fill="white"/>
<path d="M279.3 88.6001C280.6 88.3001 283.3 88.5001 286.3 88.5001C289.6 88.5001 295.6 88.8001 298.9 87.1001C300.6 86.2001 304.2 86.2001 306.7 86.7001C310.6 87.4001 313.8 90.1001 314.9 95.0001H272C272 95.0001 273.1 90.3001 279.3 88.6001V88.6001Z" fill="white"/>
<path d="M323.062 75.5H407.938C411.272 75.5 414 78.2 414 81.5V128H317V81.5C317 78.2 319.728 75.5 323.062 75.5Z" fill="#56697A"/>
<path d="M365.5 44L344.281 60.5V128H386.719V60.5L365.5 44Z" fill="#C0D1E2"/>
<path d="M367.016 107H372.017C373.381 107 374.594 108.05 374.594 109.4V128H367.016V107Z" fill="#9EB3C8"/>
<path d="M363.984 128H356.406V110C356.406 108.35 357.77 107 359.438 107H363.984V128Z" fill="#9EB3C8"/>
<path d="M365.5 81.5C371.359 81.5 376.109 76.799 376.109 71C376.109 65.201 371.359 60.5 365.5 60.5C359.641 60.5 354.891 65.201 354.891 71C354.891 76.799 359.641 81.5 365.5 81.5Z" fill="#F9FBFC"/>
<path d="M400.359 120.5C404.545 120.5 407.938 115.127 407.938 108.5C407.938 101.873 404.545 96.5 400.359 96.5C396.174 96.5 392.781 101.873 392.781 108.5C392.781 115.127 396.174 120.5 400.359 120.5Z" fill="#9EB88F"/>
<path d="M401.875 113C401.875 112.1 401.269 111.5 400.359 111.5C399.45 111.5 398.844 112.1 398.844 113V128H401.875V113Z" fill="#D6EBCE"/>
<path d="M330.641 120.5C334.826 120.5 338.219 115.127 338.219 108.5C338.219 101.873 334.826 96.5 330.641 96.5C326.455 96.5 323.062 101.873 323.062 108.5C323.062 115.127 326.455 120.5 330.641 120.5Z" fill="#9EB88F"/>
<path d="M332.156 113C332.156 112.1 331.55 111.5 330.641 111.5C329.731 111.5 329.125 112.1 329.125 113V128H332.156V113Z" fill="#D6EBCE"/>
<rect width="10" height="2" rx="1" transform="matrix(0 1 1 0 365 63)" fill="#56697A"/>
<rect width="8" height="2" rx="1" transform="matrix(1 0 0 -1 359 73)" fill="#56697A"/>
<defs>
<linearGradient id="paint0_linear_701_44759" x1="384" y1="0" x2="384" y2="128" gradientUnits="userSpaceOnUse">
<stop stop-color="#FAF5FF"/>
<stop offset="1" stop-color="#E8F3FF"/>
</linearGradient>
</defs>
</svg>
