<svg width="24" height="25" viewBox="0 0 24 25" fill="none" xmlns="http://www.w3.org/2000/svg">
<path d="M1.44262 12.2014C1.29784 11.8243 1.31039 11.4044 1.47751 11.0343C1.64464 10.6641 1.95264 10.374 2.33378 10.2277C2.71491 10.0814 3.13795 10.0909 3.50983 10.2541C3.8817 10.4174 4.17196 10.721 4.31674 11.0982L5.95446 15.3646L6.91251 14.9968L4.18297 7.88613C4.03819 7.50896 4.05074 7.08911 4.21787 6.71896C4.38499 6.34881 4.693 6.05866 5.07413 5.91236C5.45526 5.76606 5.8783 5.77558 6.25018 5.93883C6.62206 6.10208 6.91232 6.40568 7.0571 6.78286L9.42269 12.9454L10.3807 12.5777L7.28727 4.51892C7.14248 4.14175 7.15503 3.7219 7.32216 3.35175C7.48928 2.9816 7.79729 2.69145 8.17842 2.54515C8.55956 2.39885 8.98259 2.40837 9.35447 2.57162C9.72635 2.73487 10.0166 3.03847 10.1614 3.41565L13.2549 11.4744L14.2129 11.1067L11.8473 4.94407C11.7025 4.5669 11.7151 4.14705 11.8822 3.7769C12.0493 3.40674 12.3573 3.1166 12.7385 2.9703C13.1196 2.82399 13.5426 2.83352 13.9145 2.99677C14.2864 3.16002 14.5767 3.46362 14.7214 3.8408L18.1788 12.8476L19.4653 10.4719C19.6216 10.2257 19.8522 10.0344 20.1239 9.92542C20.27 9.86355 20.4267 9.83093 20.5851 9.82944C20.7436 9.82795 20.9005 9.85763 21.0469 9.91675C21.1932 9.97587 21.3261 10.0633 21.4379 10.1739C21.5497 10.2845 21.6381 10.4162 21.698 10.5613C21.8132 10.8363 21.826 11.1436 21.7341 11.4285L19.5892 17.8105C19.2052 18.9564 18.5699 20.0052 17.7294 20.8809C16.8888 21.7567 15.864 22.4375 14.7289 22.8743L14.384 23.0067C12.3513 23.787 10.0951 23.7362 8.11179 22.8655C6.12843 21.9948 4.58039 20.3756 3.80821 18.364L1.44262 12.2014Z" fill="white"/>
</svg>
