<svg width="129" height="27" viewBox="0 0 129 27" fill="none" xmlns="http://www.w3.org/2000/svg">
<path d="M26 2V24C26 24.5304 25.7893 25.0391 25.4142 25.4142C25.0391 25.7893 24.5304 26 24 26H2C1.46957 26 0.960858 25.7893 0.585785 25.4142C0.210712 25.0391 0 24.5304 0 24V2C0 1.46957 0.210712 0.960859 0.585785 0.585786C0.960858 0.210714 1.46957 0 2 0L24 0C24.5304 0 25.0391 0.210714 25.4142 0.585786C25.7893 0.960859 26 1.46957 26 2ZM8 10H4V22H8V10ZM8.25 6C8.25994 5.553 8.13647 5.11317 7.89536 4.73664C7.65424 4.36011 7.30641 4.06396 6.89625 3.88597C6.48609 3.70798 6.0322 3.65622 5.5925 3.73731C5.1528 3.8184 4.74723 4.02865 4.42754 4.34124C4.10785 4.65382 3.88854 5.05456 3.79759 5.49233C3.70665 5.9301 3.74819 6.38503 3.91692 6.79909C4.08564 7.21314 4.37391 7.56754 4.74493 7.81706C5.11594 8.06657 5.55289 8.19989 6 8.2C6.29345 8.20805 6.58552 8.15701 6.85885 8.04994C7.13218 7.94286 7.3812 7.78192 7.59109 7.57669C7.80099 7.37146 7.96748 7.12612 8.08067 6.85526C8.19387 6.5844 8.25145 6.29355 8.25 6ZM22 14.56C22 10.91 19.71 9.66 17.53 9.66C16.7782 9.65542 16.0375 9.84096 15.3766 10.1994C14.7158 10.5578 14.1562 11.0774 13.75 11.71V10H10V22H14V15.47C13.956 15.1525 13.9801 14.8292 14.0706 14.5216C14.1611 14.2141 14.316 13.9294 14.525 13.6863C14.7341 13.4432 14.9924 13.2474 15.2829 13.1118C15.5734 12.9763 15.8894 12.9041 16.21 12.9C17.31 12.9 18 13.49 18 15.42V22H22V14.56Z" fill="#0A66C2"/>
<path d="M46.5339 22H44.1065L39.87 15.1758H37.122V22H35.0152V5.97H40.3509C43.6256 5.97 45.5263 7.8478 45.5263 10.5729C45.5263 12.1072 44.7706 14.1911 42.0226 14.9239L46.5339 22ZM43.3966 10.5958C43.3966 8.8325 42.16 7.7791 40.0761 7.7791H37.122V13.4125H40.1219C42.2058 13.4125 43.3966 12.3591 43.3966 10.5958ZM56.7214 18.4734L58.4389 19.2978C57.3168 21.4504 55.3016 22.2748 53.149 22.2748C49.7827 22.2748 47.424 19.8474 47.424 16.4124C47.424 12.9774 49.9201 10.4584 53.1719 10.4584C56.1947 10.4584 58.8511 12.5423 58.8511 16.9391V17.0078H49.5537C49.7369 19.0001 51.1567 20.4886 53.1948 20.4886C54.5001 20.4886 55.7596 20.0535 56.7214 18.4734ZM53.1719 12.2446C51.2254 12.2446 49.8514 13.5957 49.5537 15.4506H56.584C56.4466 13.6873 55.0955 12.2446 53.1719 12.2446ZM62.6788 16.3895C62.6788 18.7253 64.236 20.5115 66.4802 20.5115C68.0145 20.5115 69.1366 19.7558 69.7778 18.5192L71.4266 19.3894C70.5564 21.1756 68.7702 22.2977 66.4802 22.2977C63.1368 22.2977 60.6407 19.8245 60.6407 16.3895C60.6407 12.9545 63.2055 10.4584 66.4802 10.4584C68.7473 10.4584 70.5564 11.5805 71.4495 13.3896L69.7778 14.2598C69.1595 13.0461 67.9916 12.2446 66.4802 12.2446C64.236 12.2446 62.6788 14.0537 62.6788 16.3895ZM79.7625 10.6645V12.5881C79.5106 12.5652 79.2816 12.5194 78.961 12.5194C77.0832 12.5194 75.8466 13.6415 75.8466 16.1834V22H73.8314V10.779H75.8008V12.7255C76.3046 11.5576 77.3122 10.5958 78.8923 10.5958C79.2358 10.5958 79.4877 10.6416 79.7625 10.6645ZM86.8254 22.2977C83.6194 22.2977 81.8561 20.3741 81.8561 17.9925V10.779H83.8484V17.8322C83.8484 19.5955 85.1537 20.4886 86.8254 20.4886C88.4742 20.4886 89.7566 19.6413 89.7566 17.9009V10.779H91.7718V17.9925C91.7718 20.3741 90.0085 22.2977 86.8254 22.2977ZM95.1905 7.0921C95.1905 6.2906 95.8317 5.6494 96.6332 5.6494C97.4347 5.6494 98.0759 6.2906 98.0759 7.0921C98.0759 7.8936 97.4347 8.5348 96.6332 8.5348C95.8317 8.5348 95.1905 7.8936 95.1905 7.0921ZM97.7782 22H95.763V12.4736H93.9997V10.779H97.7782V22ZM101.936 10.779V7.2524H103.951V10.779H106.63V12.4736H103.951V19.2978C103.951 20.168 104.432 20.4428 105.142 20.4428C105.76 20.4428 106.47 20.2138 106.653 20.1451V21.8168C106.401 21.9542 105.691 22.1603 104.707 22.1603C103.218 22.1603 101.936 21.5191 101.936 19.6413V12.4736H100.012V10.779H101.936ZM117.371 18.4734L119.088 19.2978C117.966 21.4504 115.951 22.2748 113.798 22.2748C110.432 22.2748 108.073 19.8474 108.073 16.4124C108.073 12.9774 110.569 10.4584 113.821 10.4584C116.844 10.4584 119.5 12.5423 119.5 16.9391V17.0078H110.203C110.386 19.0001 111.806 20.4886 113.844 20.4886C115.149 20.4886 116.409 20.0535 117.371 18.4734ZM113.821 12.2446C111.875 12.2446 110.501 13.5957 110.203 15.4506H117.233C117.096 13.6873 115.745 12.2446 113.821 12.2446ZM128.022 10.6645V12.5881C127.771 12.5652 127.542 12.5194 127.221 12.5194C125.343 12.5194 124.107 13.6415 124.107 16.1834V22H122.091V10.779H124.061V12.7255C124.565 11.5576 125.572 10.5958 127.152 10.5958C127.496 10.5958 127.748 10.6416 128.022 10.6645Z" fill="#0A66C2"/>
</svg>
