<svg width="20" height="21" viewBox="0 0 20 21" fill="none" xmlns="http://www.w3.org/2000/svg">
<path d="M20 6C20 8.24 18.77 10.19 16.95 11.22C16.56 7.73 13.6 5 10 5H6C5.32 5 4.67 5.1 4.05 5.28C4.4 2.31 6.93 0 10 0H14C17.31 0 20 2.69 20 6ZM16 12V12.48C16 14.49 14.99 16.37 13.31 17.48L8 21V18H6C2.69 18 0 15.31 0 12C0 8.69 2.69 6 6 6H10C13.31 6 16 8.69 16 12ZM6 12C6 11.45 5.55 11 5 11C4.45 11 4 11.45 4 12C4 12.55 4.45 13 5 13C5.55 13 6 12.55 6 12ZM9 12C9 11.45 8.55 11 8 11C7.45 11 7 11.45 7 12C7 12.55 7.45 13 8 13C8.55 13 9 12.55 9 12ZM12 12C12 11.45 11.55 11 11 11C10.45 11 10 11.45 10 12C10 12.55 10.45 13 11 13C11.55 13 12 12.55 12 12Z" fill="black" fill-opacity="0.9"/>
</svg>
