<svg width="14" height="14" viewBox="0 0 14 14" fill="none" xmlns="http://www.w3.org/2000/svg">
<path d="M14 6.99C14 7.38 13.7202 7.69 13.3505 7.73C10.4126 8.05 8.06424 10.41 7.73448 13.35C7.6945 13.72 7.37473 14 7.005 14H6.995C6.62527 14 6.3055 13.72 6.26553 13.35C5.94575 10.41 3.58744 8.06 0.649536 7.73C0.2798 7.69 0 7.37 0 7C0 6.61 0.2798 6.3 0.649536 6.26C3.58744 5.94 5.93576 3.58 6.25553 0.65C6.2955 0.28 6.61527 0 6.98501 0H7.005C7.37473 0 7.6945 0.28 7.73448 0.65C8.05425 3.59 10.4126 5.94 13.3505 6.27C13.7202 6.31 14 6.63 14 7V6.99Z" fill="#0A66C2"/>
</svg>
